<svg width="178" height="273" viewBox="0 0 178 273" fill="none" xmlns="http://www.w3.org/2000/svg">
<rect x="0.19043" y="0.59082" width="177" height="272" fill="#E7C200"/>
<path d="M159.41 37.5355C166.882 42.7676 172.806 49.612 177.189 57.6631V146.952C172.154 160.396 165.098 173.901 156.037 186.843C116.68 243.05 54.3809 267.332 16.8876 241.079C10.0261 236.275 4.47089 230.111 0.214858 222.901L0.189941 128.855C5.136 116.342 11.8302 103.813 20.2612 91.7718C59.6178 35.5648 121.917 11.2824 159.41 37.5355Z" fill="white"/>
<text x="5" y="22" font-family="Arial, sans-serif" font-weight="bold" font-size="11" fill="white">ALL</text>
<text x="143" y="266" font-family="Arial, sans-serif" font-weight="bold" font-size="11" fill="white">ALL</text>
<rect x="55" y="95" width="40" height="62" rx="6" fill="#E7C200" stroke="#111111" transform="rotate(-15 55 95)"/>
<rect x="60" y="95" width="40" height="62" rx="6" fill="#E7C200" stroke="#111111"/>
<rect x="65" y="95" width="40" height="62" rx="6" fill="#E7C200" stroke="#111111" transform="rotate(15 65 95)"/>
<polygon points="89,165 75,152 82,152 82,138 96,138 96,152 103,152" fill="#E7C200"/>
<text x="89" y="195" font-family="Arial, sans-serif" font-weight="bold" font-size="20" fill="#E7C200" text-anchor="middle">ALL</text>
</svg>