<svg width="273" height="178" viewBox="0 0 273 178" fill="none" xmlns="http://www.w3.org/2000/svg">
<rect x="0.485352" y="177.295" width="177" height="272" transform="rotate(-90 0.485352 177.295)" fill="#2E2E2E"/>
<path d="M37.4305 18.0755C42.6626 10.6034 49.507 4.68033 57.5581 0.297287H146.847C160.291 5.33215 173.796 12.3875 186.738 21.4492C242.945 60.8057 267.227 123.105 240.974 160.598C236.17 167.46 230.006 173.015 222.796 177.271L128.75 177.296C116.237 172.35 103.708 165.656 91.6668 157.225C35.4598 117.868 11.1774 55.5689 37.4305 18.0755Z" fill="white"/>
<text x="17" y="172" font-family="Arial, sans-serif" font-weight="bold" font-size="16" fill="white" transform="rotate(-90 17 172)">+10</text>
<text x="254" y="38" font-family="Arial, sans-serif" font-weight="bold" font-size="16" fill="white" transform="rotate(-90 254 38)">+10</text>
<!-- Multiple stacked cards rotated for right orientation -->
<rect x="112" y="160" width="40" height="62" rx="6" transform="rotate(-90 112 160)" fill="#00B453" stroke="white"/>
<rect x="98" y="145" width="40" height="62" rx="6" transform="rotate(-90 98 145)" fill="#004FC5" stroke="white"/>
<rect x="112" y="130" width="40" height="62" rx="6" transform="rotate(-90 112 130)" fill="#EF4343" stroke="white"/>
<rect x="98" y="115" width="40" height="62" rx="6" transform="rotate(-90 98 115)" fill="#E7C200" stroke="white"/>
<rect x="112" y="100" width="40" height="62" rx="6" transform="rotate(-90 112 100)" fill="#00B453" stroke="white"/>
<rect x="98" y="85" width="40" height="62" rx="6" transform="rotate(-90 98 85)" fill="#004FC5" stroke="white"/>
<rect x="125" y="135" width="40" height="62" rx="6" transform="rotate(-90 125 135)" fill="#EF4343" stroke="white"/>
<rect x="110" y="120" width="40" height="62" rx="6" transform="rotate(-90 110 120)" fill="#E7C200" stroke="white"/>
<rect x="125" y="105" width="40" height="62" rx="6" transform="rotate(-90 125 105)" fill="#00B453" stroke="white"/>
<rect x="110" y="90" width="40" height="62" rx="6" transform="rotate(-90 110 90)" fill="#004FC5" stroke="white"/>
</svg>